<svg width="503" height="720" viewBox="0 0 503 720" fill="none" xmlns="http://www.w3.org/2000/svg">
<g clip-path="url(#clip0_93_2)">
<rect width="503" height="720" fill="url(#paint0_linear_93_2)" style=""/>
<g clip-path="url(#clip1_93_2)">
<path d="M225.325 639.55H217.65V587.696C217.65 581.604 215.204 575.752 210.886 571.434L162.966 523.514C158.648 519.196 152.796 516.75 146.704 516.75H125.55V493.725C125.55 481.013 115.237 470.7 102.525 470.7H-50.975C-63.6867 470.7 -74 481.013 -74 493.725V647.225C-74 659.937 -63.6867 670.25 -50.975 670.25H-43.3C-43.3 695.673 -22.6734 716.3 2.75 716.3C28.1734 716.3 48.8 695.673 48.8 670.25H110.2C110.2 695.673 130.827 716.3 156.25 716.3C181.673 716.3 202.3 695.673 202.3 670.25H225.325C229.546 670.25 233 666.796 233 662.575V647.225C233 643.004 229.546 639.55 225.325 639.55ZM2.75 693.275C-9.96172 693.275 -20.275 682.962 -20.275 670.25C-20.275 657.538 -9.96172 647.225 2.75 647.225C15.4617 647.225 25.775 657.538 25.775 670.25C25.775 682.962 15.4617 693.275 2.75 693.275ZM71.825 574.312C71.825 576.423 70.0981 578.15 67.9875 578.15H41.125V605.012C41.125 607.123 39.3981 608.85 37.2875 608.85H14.2625C12.1519 608.85 10.425 607.123 10.425 605.012V578.15H-16.4375C-18.5481 578.15 -20.275 576.423 -20.275 574.312V551.287C-20.275 549.177 -18.5481 547.45 -16.4375 547.45H10.425V520.587C10.425 518.477 12.1519 516.75 14.2625 516.75H37.2875C39.3981 516.75 41.125 518.477 41.125 520.587V547.45H67.9875C70.0981 547.45 71.825 549.177 71.825 551.287V574.312ZM156.25 693.275C143.538 693.275 133.225 682.962 133.225 670.25C133.225 657.538 143.538 647.225 156.25 647.225C168.962 647.225 179.275 657.538 179.275 670.25C179.275 682.962 168.962 693.275 156.25 693.275ZM194.625 593.5H125.55V539.775H146.704L194.625 587.696V593.5Z" fill="white" style="fill:white;fill-opacity:1;"/>
</g>
<path d="M485.125 618.328V566H408.172C403.054 566 398.938 570.117 398.938 575.234V664.5H377.391C375.698 664.5 374.312 665.885 374.312 667.578V673.734C374.312 675.427 375.698 676.812 377.391 676.812H431.604C432.758 676.812 433.836 677.467 434.374 678.505L442.031 693.819L463.886 650.071C465.002 647.801 468.272 647.801 469.388 650.071L482.739 676.812H509.75C513.136 676.812 515.906 679.583 515.906 682.969C515.906 686.355 513.136 689.125 509.75 689.125H475.16L466.656 672.118L444.802 715.866C443.686 718.136 440.415 718.136 439.299 715.866L425.91 689.125H398.938V753.766C398.938 758.883 403.054 763 408.172 763H537.453C542.571 763 546.688 758.883 546.688 753.766V627.562H494.359C489.28 627.562 485.125 623.407 485.125 618.328ZM543.994 606.4L506.326 568.693C504.594 566.962 502.247 566 499.785 566H497.438V615.25H546.688V612.903C546.688 610.479 545.726 608.132 543.994 606.4Z" fill="#892B2B" style="fill:#892B2B;fill:color(display-p3 0.5373 0.1686 0.1686);fill-opacity:1;"/>
<g clip-path="url(#clip2_93_2)">
<path d="M534.292 31.625H386.708C375.113 31.625 365.73 41.1125 365.73 52.7083L365.625 200.292C365.625 211.888 375.113 221.375 386.708 221.375H534.292C545.888 221.375 555.375 211.888 555.375 200.292V52.7083C555.375 41.1125 545.888 31.625 534.292 31.625ZM523.75 147.583H481.583V189.75H439.417V147.583H397.25V105.417H439.417V63.25H481.583V105.417H523.75V147.583Z" fill="#FF5E5E" style="fill:#FF5E5E;fill:color(display-p3 1.0000 0.3699 0.3699);fill-opacity:1;"/>
</g>
<path d="M192.828 263.669H350.561L361.828 308.763L328.028 365.13L260.428 432.771L192.828 365.13L159.028 308.763L192.828 263.669Z" fill="#892B2B" style="fill:#892B2B;fill:color(display-p3 0.5373 0.1686 0.1686);fill-opacity:1;"/>
<path d="M260.433 258.559C248.149 247.268 232.071 241.001 215.384 241C206.551 241.009 197.808 242.764 189.657 246.165C181.505 249.565 174.107 254.544 167.888 260.813C141.361 287.445 141.373 329.101 167.911 355.62L250.569 438.254C252.485 441.624 256.183 443.799 260.433 443.799C262.178 443.782 263.895 443.356 265.446 442.556C266.996 441.755 268.337 440.602 269.362 439.19L352.955 355.62C379.493 329.089 379.493 287.445 352.933 260.768C346.717 254.51 339.324 249.542 331.181 246.149C323.038 242.757 314.304 241.007 305.482 241C288.795 241.003 272.718 247.269 260.433 258.559ZM336.992 276.705C354.613 294.41 354.624 322.068 337.014 339.683L260.433 416.243L183.851 339.683C166.242 322.068 166.253 294.41 183.829 276.75C192.397 268.229 203.603 263.541 215.384 263.541C227.165 263.541 238.325 268.229 246.826 276.727L252.463 282.362C253.509 283.41 254.751 284.241 256.119 284.808C257.486 285.375 258.952 285.667 260.433 285.667C261.914 285.667 263.38 285.375 264.747 284.808C266.115 284.241 267.357 283.41 268.403 282.362L274.04 276.727C291.086 259.72 319.969 259.765 336.992 276.705Z" fill="#E75454" style="fill:#E75454;fill:color(display-p3 0.9052 0.3306 0.3306);fill-opacity:1;"/>
<path fill-rule="evenodd" clip-rule="evenodd" d="M260.18 297.376C265.188 297.184 269.722 300.314 271.307 305.058L303.53 401.502L317.248 339.916C318.283 335.269 322.139 331.775 326.875 331.193C331.612 330.611 336.202 333.068 338.336 337.326L352.13 364.85H395.894C402.12 364.85 407.167 369.886 407.167 376.097C407.167 382.309 402.12 387.345 395.894 387.345H345.163C340.893 387.345 336.989 384.938 335.08 381.127L332.37 375.72L316.711 446.02C315.612 450.955 311.347 454.552 306.287 454.813C301.226 455.073 296.613 451.933 295.011 447.137L262.16 348.812L254.639 378.825C253.384 383.832 248.875 387.345 243.702 387.345H192.972C186.746 387.345 181.698 382.309 181.698 376.097C181.698 369.886 186.746 364.85 192.972 364.85H234.9L249.675 305.887C250.891 301.035 255.171 297.567 260.18 297.376Z" fill="white" style="fill:white;fill-opacity:1;"/>
</g>
<defs>
<linearGradient id="paint0_linear_93_2" x1="251.5" y1="0" x2="251.5" y2="720" gradientUnits="userSpaceOnUse">
<stop stop-color="#461A1A" style="stop-color:#461A1A;stop-color:color(display-p3 0.2741 0.1010 0.1010);stop-opacity:1;"/>
<stop offset="1" stop-color="#2B0B0B" style="stop-color:#2B0B0B;stop-color:color(display-p3 0.1679 0.0439 0.0439);stop-opacity:1;"/>
</linearGradient>
<clipPath id="clip0_93_2">
<rect width="503" height="720" fill="white" style="fill:white;fill-opacity:1;"/>
</clipPath>
<clipPath id="clip1_93_2">
<rect width="307" height="307" fill="white" style="fill:white;fill-opacity:1;" transform="translate(-74 440)"/>
</clipPath>
<clipPath id="clip2_93_2">
<rect width="253" height="253" fill="white" style="fill:white;fill-opacity:1;" transform="translate(334)"/>
</clipPath>
</defs>
</svg>
