<svg width="327" height="327" viewBox="0 0 327 327" fill="none" xmlns="http://www.w3.org/2000/svg">
<path d="M101.953 107.971C74.7864 109.865 49.3191 121.894 30.5972 141.675C20.6991 152.156 12.9707 164.49 7.85691 177.968C2.74308 191.446 0.344751 205.801 0.799928 220.208C2.61057 281.532 52.0035 328.251 113.214 326.543L303.906 321.264C310.051 322.772 316.778 320.829 321.546 315.791C323.484 313.703 324.905 311.19 325.696 308.454C326.486 305.717 326.624 302.834 326.099 300.035L320.814 107.182C319.136 45.9584 269.769 -0.761722 208.347 0.795807C193.954 1.14363 179.771 4.33289 166.614 10.1802C153.456 16.0276 141.583 24.4177 131.678 34.8682C112.96 54.6527 102.352 80.7423 101.953 107.971ZM209.354 37.5717C250.112 36.5473 282.911 67.5627 284.038 108.201L288.88 284.876L112.206 289.768C71.5675 290.88 38.7936 259.838 37.5756 219.189C37.0873 199.474 44.1012 180.929 57.3181 166.964C70.535 152.998 88.6143 145.027 108.224 144.484L121.229 144.124C123.644 144.06 126.023 143.519 128.229 142.534C130.436 141.549 132.427 140.138 134.088 138.383C135.749 136.628 137.048 134.563 137.91 132.305C138.772 130.048 139.181 127.643 139.112 125.227L138.756 112.223C137.719 72.9363 170.176 38.7476 209.354 37.5717Z" fill="#E75454" style="fill:#E75454;fill:color(display-p3 0.9052 0.3306 0.3306);fill-opacity:1;"/>
</svg>
