<svg width="503" height="720" viewBox="0 0 503 720" fill="none" xmlns="http://www.w3.org/2000/svg">
<g clip-path="url(#clip0_86_3)">
<rect width="503" height="720" fill="url(#paint0_linear_86_3)" style=""/>
<path d="M216.547 510.025C215.402 482.816 204.079 457.028 184.82 437.768C174.616 427.585 162.499 419.52 149.168 414.037C135.836 408.554 121.552 405.761 107.138 405.82C45.7876 405.941 -2.27419 454.029 -2.25247 515.263L-2.22532 706.028C-3.90262 712.129 -2.14544 718.907 2.75969 723.812C4.79333 725.807 7.26623 727.297 9.97979 728.162C12.6933 729.028 15.5719 729.245 18.3843 728.797L211.309 728.824C272.556 728.833 320.618 680.771 320.752 619.329C320.801 604.933 318.003 590.667 312.52 577.354C307.038 564.04 298.978 551.941 288.804 541.752C269.542 522.496 243.755 511.173 216.547 510.025ZM283.962 619.324C283.864 660.095 251.957 692.027 211.304 692.035L34.5624 692.009L34.5372 515.268C34.5445 474.614 66.4773 442.708 107.144 442.609C126.865 442.664 145.209 450.186 158.806 463.783C172.402 477.379 179.872 495.671 179.875 515.289L179.877 528.298C179.875 530.714 180.35 533.107 181.274 535.34C182.198 537.572 183.553 539.601 185.262 541.31C186.97 543.019 188.999 544.374 191.232 545.298C193.465 546.222 195.858 546.697 198.274 546.695L211.283 546.697C250.584 546.742 283.866 580.128 283.962 619.324Z" fill="#E75454" style="fill:#E75454;fill:color(display-p3 0.9052 0.3306 0.3306);fill-opacity:1;"/>
<path d="M194 359.5C194 274.172 263.172 205 348.5 205V205C433.828 205 503 274.172 503 359.5V514H348.5C263.172 514 194 444.828 194 359.5V359.5Z" fill="#892B2B" style="fill:#892B2B;fill:color(display-p3 0.5373 0.1686 0.1686);fill-opacity:1;"/>
<rect x="244.976" y="256.488" width="208" height="207" rx="103.5" stroke="#E75454" stroke-opacity="0.24" style="stroke:#E75454;stroke:color(display-p3 0.9059 0.3294 0.3294);stroke-opacity:0.24;" stroke-width="30"/>
<path d="M301.443 267.905C297.579 260.42 288.307 257.409 281.378 262.199C268.427 271.154 257.34 282.622 248.808 295.975C237.528 313.628 231.113 333.948 230.212 354.878C229.312 375.807 233.958 396.603 243.68 415.16C253.402 433.716 267.855 449.374 285.575 460.549C303.295 471.723 323.653 478.016 344.587 478.792C365.522 479.567 386.29 474.797 404.788 464.964C423.286 455.132 438.857 440.586 449.926 422.799C458.298 409.345 463.868 394.398 466.367 378.852C467.704 370.535 460.99 363.467 452.57 363.205V363.205C444.15 362.944 437.245 369.611 435.541 377.861C433.44 388.033 429.555 397.796 424.025 406.682C415.797 419.904 404.221 430.718 390.47 438.027C376.718 445.337 361.279 448.883 345.717 448.307C330.154 447.73 315.02 443.052 301.846 434.745C288.673 426.438 277.929 414.798 270.702 401.003C263.475 387.208 260.021 371.748 260.69 356.189C261.36 340.63 266.128 325.524 274.514 312.401C280.149 303.581 287.284 295.868 295.557 289.588C302.268 284.495 305.308 275.39 301.443 267.905V267.905Z" fill="#FFBEBE" style="fill:#FFBEBE;fill:color(display-p3 1.0000 0.7442 0.7442);fill-opacity:1;"/>
<path d="M241 262C241 328.274 187.025 382 120.751 382V382C54.2002 382 -1.05424e-05 328.05 -4.72434e-06 261.5L5.72268e-06 142L121 142C187.274 142 241 195.726 241 262V262Z" fill="#ECECEC" style="fill:#ECECEC;fill:color(display-p3 0.9251 0.9251 0.9251);fill-opacity:1;"/>
</g>
<defs>
<linearGradient id="paint0_linear_86_3" x1="251.5" y1="0" x2="251.5" y2="720" gradientUnits="userSpaceOnUse">
<stop stop-color="#461A1A" style="stop-color:#461A1A;stop-color:color(display-p3 0.2741 0.1010 0.1010);stop-opacity:1;"/>
<stop offset="1" stop-color="#2B0B0B" style="stop-color:#2B0B0B;stop-color:color(display-p3 0.1679 0.0439 0.0439);stop-opacity:1;"/>
</linearGradient>
<clipPath id="clip0_86_3">
<rect width="503" height="720" fill="white" style="fill:white;fill-opacity:1;"/>
</clipPath>
</defs>
</svg>
