<svg width="12" height="10" viewBox="0 0 12 10" fill="none" xmlns="http://www.w3.org/2000/svg">
<path d="M2 1H9L9.5 3L8 5.5L5 8.5L2 5.5L0.5 3L2 1Z" fill="#892B2B" style="fill:#892B2B;fill:color(display-p3 0.5373 0.1686 0.1686);fill-opacity:1;"/>
<path d="M4.98656 0.779C4.44176 0.278052 3.72867 2.32768e-05 2.98856 0C2.59683 0.000407851 2.20905 0.0782798 1.84753 0.229134C1.48601 0.379989 1.1579 0.600847 0.882063 0.879C-0.294437 2.0605 -0.293937 3.9085 0.883063 5.085L4.54906 8.751C4.63406 8.9005 4.79806 8.997 4.98656 8.997C5.06396 8.99625 5.14011 8.97736 5.20888 8.94184C5.27765 8.90632 5.33714 8.85517 5.38256 8.7925L9.09006 5.085C10.2671 3.908 10.2671 2.0605 9.08906 0.877C8.81337 0.599358 8.48551 0.378948 8.12435 0.228442C7.76318 0.0779348 7.37583 0.000299803 6.98456 0C6.24448 0.00012098 5.53141 0.278136 4.98656 0.779ZM8.38206 1.584C9.16356 2.3695 9.16406 3.5965 8.38306 4.378L4.98656 7.7745L1.59006 4.378C0.809062 3.5965 0.809563 2.3695 1.58906 1.586C1.96906 1.208 2.46606 1 2.98856 1C3.51106 1 4.00606 1.208 4.38306 1.585L4.63306 1.835C4.67946 1.88147 4.73456 1.91834 4.79522 1.9435C4.85587 1.96865 4.9209 1.9816 4.98656 1.9816C5.05223 1.9816 5.11725 1.96865 5.17791 1.9435C5.23857 1.91834 5.29367 1.88147 5.34006 1.835L5.59006 1.585C6.34606 0.8305 7.62706 0.8325 8.38206 1.584Z" fill="#E75454" style="fill:#E75454;fill:color(display-p3 0.9052 0.3306 0.3306);fill-opacity:1;"/>
<path d="M2 6H4.25L5 3L7 9L8 4.5L8.75 6H11" stroke="white" style="stroke:white;stroke-opacity:1;" stroke-linecap="round" stroke-linejoin="round"/>
</svg>
