<svg width="503" height="720" viewBox="0 0 503 720" fill="none" xmlns="http://www.w3.org/2000/svg">
<g clip-path="url(#clip0_93_35)">
<rect width="503" height="720" fill="url(#paint0_linear_93_35)" style=""/>
<path d="M179.956 220.795C174.128 209.508 160.147 204.966 149.698 212.19C130.168 225.693 113.45 242.987 100.584 263.123C83.5743 289.743 73.9009 320.384 72.5431 351.945C71.1853 383.506 78.1913 414.866 92.8516 442.848C107.512 470.83 129.306 494.442 156.027 511.292C182.748 528.142 213.447 537.632 245.015 538.801C276.584 539.971 307.901 532.778 335.795 517.95C363.689 503.123 387.17 481.189 403.86 454.368C416.485 434.079 424.886 411.54 428.653 388.098C430.669 375.556 420.545 364.897 407.848 364.502V364.502C395.151 364.108 384.738 374.162 382.169 386.603C379.002 401.942 373.142 416.663 364.804 430.063C352.396 450.002 334.94 466.308 314.204 477.331C293.467 488.353 270.186 493.701 246.718 492.832C223.25 491.962 200.428 484.907 180.564 472.381C160.7 459.855 144.498 442.302 133.599 421.5C122.701 400.697 117.493 377.385 118.502 353.923C119.512 330.46 126.703 307.681 139.347 287.892C147.846 274.592 158.604 262.961 171.08 253.491C181.199 245.812 185.784 232.082 179.956 220.795V220.795Z" fill="#FFBEBE" style="fill:#FFBEBE;fill:color(display-p3 1.0000 0.7442 0.7442);fill-opacity:1;"/>
<path d="M227.389 391.396L189.714 353.666C185.46 349.405 178.582 349.321 174.225 353.475V353.475C169.716 357.773 169.634 364.942 174.044 369.342L227.389 422.57L350.713 299.343C355.12 294.94 355.036 287.772 350.527 283.473V283.473C346.168 279.318 339.289 279.402 335.032 283.662L227.389 391.396Z" fill="#FF5E5E" stroke="#FF5E5E" style="fill:#FF5E5E;fill:color(display-p3 1.0000 0.3699 0.3699);fill-opacity:1;stroke:#FF5E5E;stroke:color(display-p3 1.0000 0.3699 0.3699);stroke-opacity:1;" stroke-width="19"/>
<path d="M154.5 -194C239.828 -194 309 -124.828 309 -39.5V-39.5C309 45.828 239.828 115 154.5 115L-1.35068e-05 115L-6.75341e-06 -39.5C-3.0236e-06 -124.828 69.172 -194 154.5 -194V-194Z" fill="#892B2B" style="fill:#892B2B;fill:color(display-p3 0.5373 0.1686 0.1686);fill-opacity:1;"/>
<rect x="257.513" y="-143.024" width="208" height="207" rx="103.5" transform="rotate(90 257.513 -143.024)" stroke="#E75454" stroke-opacity="0.24" style="stroke:#E75454;stroke:color(display-p3 0.9059 0.3294 0.3294);stroke-opacity:0.24;" stroke-width="30"/>
<path d="M246.095 -86.5566C253.58 -90.4213 256.592 -99.693 251.801 -106.622C242.847 -119.573 231.378 -130.66 218.025 -139.192C200.372 -150.472 180.052 -156.887 159.123 -157.788C138.193 -158.688 117.397 -154.042 98.8405 -144.32C80.284 -134.598 64.6259 -120.145 53.4518 -102.425C42.2777 -84.7053 35.9842 -64.3473 35.2088 -43.4126C34.4334 -22.478 39.2035 -1.7102 49.0362 16.7879C58.8688 35.286 73.4148 50.8574 91.2012 61.9255C104.655 70.2978 119.602 75.8684 135.148 78.3668C143.465 79.7035 150.534 72.99 150.795 64.5701V64.5701C151.057 56.1502 144.389 49.2446 136.139 47.541C125.967 45.4404 116.205 41.5547 107.319 36.025C94.0961 27.7969 83.2827 16.2211 75.9731 2.46961C68.6635 -11.2819 65.1174 -26.7207 65.6938 -42.2835C66.2703 -57.8463 70.9488 -72.9805 79.2556 -86.1535C87.5625 -99.3266 99.2027 -110.071 112.998 -117.298C126.793 -124.525 142.252 -127.979 157.811 -127.31C173.37 -126.64 188.476 -121.872 201.6 -113.486C210.419 -107.851 218.133 -100.716 224.412 -92.4425C229.505 -85.7323 238.61 -82.6918 246.095 -86.5566V-86.5566Z" fill="#FFBEBE" style="fill:#FFBEBE;fill:color(display-p3 1.0000 0.7442 0.7442);fill-opacity:1;"/>
<g clip-path="url(#clip1_93_35)">
<path d="M559.292 585.625H411.708C400.113 585.625 390.73 595.113 390.73 606.708L390.625 754.292C390.625 765.888 400.113 775.375 411.708 775.375H559.292C570.888 775.375 580.375 765.888 580.375 754.292V606.708C580.375 595.113 570.888 585.625 559.292 585.625ZM548.75 701.583H506.583V743.75H464.417V701.583H422.25V659.417H464.417V617.25H506.583V659.417H548.75V701.583Z" fill="#FF5E5E" style="fill:#FF5E5E;fill:color(display-p3 1.0000 0.3699 0.3699);fill-opacity:1;"/>
</g>
<g clip-path="url(#clip2_93_35)">
<path d="M48.875 599.25C75.8255 599.25 98.0722 619.364 101.438 645.393L116.344 668.839C117.325 670.383 117.126 672.682 114.853 673.662L101.875 679.214V698.625C101.875 705.946 95.9456 711.875 88.625 711.875H75.3816L75.375 731.75H15.75V707.277C15.75 699.46 12.8615 692.06 7.5085 685.382C0.227625 676.305 -4.125 664.784 -4.125 652.25C-4.125 622.981 19.6057 599.25 48.875 599.25ZM45.3638 637.43C40.8323 632.898 33.4917 632.898 28.9669 637.43C24.4354 641.955 24.4354 649.295 28.9669 653.82L48.875 673.735L68.7831 653.82C73.3146 649.295 73.3146 641.955 68.7831 637.43C64.2583 632.898 56.9177 632.898 52.3862 637.43L48.875 640.941L45.3638 637.43Z" fill="#A03535" style="fill:#A03535;fill:color(display-p3 0.6275 0.2078 0.2078);fill-opacity:1;"/>
</g>
</g>
<defs>
<linearGradient id="paint0_linear_93_35" x1="251.5" y1="0" x2="251.5" y2="720" gradientUnits="userSpaceOnUse">
<stop stop-color="#461A1A" style="stop-color:#461A1A;stop-color:color(display-p3 0.2741 0.1010 0.1010);stop-opacity:1;"/>
<stop offset="1" stop-color="#2B0B0B" style="stop-color:#2B0B0B;stop-color:color(display-p3 0.1679 0.0439 0.0439);stop-opacity:1;"/>
</linearGradient>
<clipPath id="clip0_93_35">
<rect width="503" height="720" fill="white" style="fill:white;fill-opacity:1;"/>
</clipPath>
<clipPath id="clip1_93_35">
<rect width="253" height="253" fill="white" style="fill:white;fill-opacity:1;" transform="translate(359 554)"/>
</clipPath>
<clipPath id="clip2_93_35">
<rect width="159" height="159" fill="white" style="fill:white;fill-opacity:1;" transform="translate(-24 586)"/>
</clipPath>
</defs>
</svg>
