<svg width="309" height="309" viewBox="0 0 309 309" fill="none" xmlns="http://www.w3.org/2000/svg">
<path d="M0 154.5C0 69.172 69.172 0 154.5 0C239.828 0 309 69.172 309 154.5V309H154.5C69.172 309 0 239.828 0 154.5Z" fill="#892B2B" style="fill:#892B2B;fill:color(display-p3 0.5373 0.1686 0.1686);fill-opacity:1;"/>
<rect x="50.9756" y="51.4877" width="208" height="207" rx="103.5" stroke="#E75454" stroke-opacity="0.24" style="stroke:#E75454;stroke:color(display-p3 0.9059 0.3294 0.3294);stroke-opacity:0.24;" stroke-width="30"/>
<path d="M107.443 62.9054C103.579 55.4202 94.3069 52.4085 87.3779 57.1993C74.4267 66.1536 63.3399 77.622 54.8076 90.9752C43.5278 108.628 37.1129 128.948 36.2125 149.878C35.312 170.807 39.958 191.603 49.68 210.16C59.402 228.716 73.8547 244.374 91.5747 255.549C109.295 266.723 129.653 273.016 150.587 273.792C171.522 274.567 192.29 269.797 210.788 259.964C229.286 250.132 244.857 235.586 255.926 217.799C264.298 204.345 269.868 189.398 272.367 173.852C273.704 165.535 266.99 158.467 258.57 158.205C250.15 157.944 243.245 164.611 241.541 172.861C239.44 183.033 235.555 192.795 230.025 201.682C221.797 214.904 210.221 225.718 196.47 233.027C182.718 240.337 167.279 243.883 151.717 243.307C136.154 242.73 121.02 238.052 107.846 229.745C94.6734 221.438 83.9293 209.798 76.702 196.003C69.4746 182.208 66.0208 166.748 66.6902 151.189C67.3596 135.63 72.1284 120.524 80.5138 107.401C86.1493 98.5812 93.2838 90.8676 101.557 84.5882C108.268 79.4954 111.308 70.3905 107.443 62.9054Z" fill="#FFBEBE" style="fill:#FFBEBE;fill:color(display-p3 1.0000 0.7442 0.7442);fill-opacity:1;"/>
</svg>
